#!OML:ASF F:\VICON\USERDATA\INSTALL\rory3\rory3.ASF
:FULLY-SPECIFIED
:DEGREES
217
root 0.122676 17.9687 9.73689 -0.437089 -3.40274 -7.90631
lowerback 9.54187 1.97172 8.49563
upperback -0.346355 3.71081 2.30269
thorax -5.3493 1.62166 -2.85243
lowerneck -16.7607 -3.15698 -0.895859
upperneck 22.4424 -4.09432 -0.311991
head 9.91156 -2.00486 -0.505943
rclavicle -9.20621e-015 -1.48095e-014
rhumerus -19.5304 -7.91843 -82.6287
rradius 29.9932
rwrist -0.142901
rhand -19.3472 25.4153
rfingers 7.12502
rthumb 6.97001 -4.44998
lclavicle -9.20621e-015 -1.48095e-014
lhumerus -37.1874 5.69687 82.746
lradius 22.3046
lwrist 2.87949
lhand -26.7459 22.4268
lfingers 7.12502
lthumb -0.174622 52.4065
rfemur 6.57935 6.40271 35.231
rtibia 21.698
rfoot -18.3933 -5.82824
rtoes 5.90262
lfemur -27.7652 -3.32927 -9.56017
ltibia 25.202
lfoot -5.61267 5.86414
ltoes -7.87494
218
root 0.133414 17.9493 9.92186 -0.369876 -3.60321 -8.04019
lowerback 9.48407 2.06984 8.66656
upperback -0.299691 3.85023 2.30945
thorax -5.24196 1.69134 -2.95263
lowerneck -16.8418 -3.12911 -0.980103
upperneck 22.3373 -4.05574 -0.206676
head 9.89386 -1.98187 -0.450292
rclavicle 2.64632e-015 -2.33572e-014
rhumerus -19.1781 -7.90779 -82.6741
rradius 30.4373
rwrist -0.602297
rhand -19.1607 24.6891
rfingers 7.12502
rthumb 7.15002 -5.1701
lclavicle 2.64632e-015 -2.33572e-014
lhumerus -37.0746 6.04385 82.586
lradius 21.7275
lwrist 2.55547
lhand -26.9284 20.7269
lfingers 7.12502
lthumb -0.350977 50.7064
rfemur 7.28494 6.29848 35.2685
rtibia 21.4139
rfoot -18.3924 -5.41236
rtoes 5.75075
lfemur -27.2018 -4.07931 -9.05247
ltibia 22.2154
lfoot -5.80194 6.1142
ltoes -7.88523
219
root 0.149143 17.938 10.1127 -0.228106 -3.81384 -8.04661
lowerback 9.26683 2.16898 8.75387
upperback -0.264128 3.96219 2.28116
thorax -5.06137 1.75281 -3.03124
lowerneck -16.7072 -3.15888 -1.05985
upperneck 22.0587 -4.09765 -0.108786
head 9.77404 -1.99869 -0.402697
rclavicle 7.56065e-014 -7.35503e-015
rhumerus -19.0178 -7.87186 -82.6617
rradius 30.9565
rwrist -1.0108
rhand -19.1402 24.104
rfingers 7.12502
rthumb 7.16985 -5.75458
lclavicle 7.56065e-014 -7.35503e-015
lhumerus -37.0167 6.18383 82.562
lradius 21.2717
lwrist 2.60696
lhand -27.0535 21.8349
lfingers 7.12502
lthumb -0.47179 51.8141
rfemur 7.86187 6.26616 35.1116
rtibia 21.2923
rfoot -18.4032 -4.90069
rtoes 5.09732
lfemur -26.713 -5.07867 -8.62597
ltibia 19.3402
lfoot -5.81722 6.56913
ltoes -8.63852
220
root 0.166563 17.9189 10.3048 -0.0708691 -3.88964 -7.88766
lowerback 9.02245 2.18946 8.63887
upperback -0.301779 3.94948 2.2294
thorax -4.96813 1.75246 -3.00843
lowerneck -16.6039 -3.16936 -1.09752
upperneck 22.0228 -4.12269 -0.0297055
head 9.74492 -2.00502 -0.370021
rclavicle 1.39274e-014 9.54166e-015
rhumerus -18.8181 -8.05226 -82.6591
rradius 30.9265
rwrist -0.84429
rhand -19.2753 24.2967
rfingers 7.12502
rthumb 7.03939 -5.56623
lclavicle 1.39274e-014 9.54166e-015
lhumerus -37.3049 6.45196 82.4764
lradius 21.0681
lwrist 2.52688
lhand -26.8349 23.338
lfingers 7.12502
lthumb -0.260599 53.3176
rfemur 8.45637 6.23636 34.7887
rtibia 21.2245
rfoot -18.6305 -4.46503
rtoes 3.134
lfemur -26.366 -5.97423 -8.46415
ltibia 16.7761
lfoot -5.82178 6.88337
ltoes -8.68882
221
root 0.181981 17.8968 10.4904 -0.0264463 -3.95212 -7.54036
lowerback 9.03044 2.24441 8.26932
upperback -0.365652 3.98428 2.13725
thorax -5.05301 1.77311 -2.90733
lowerneck -16.7386 -3.16236 -1.09128
upperneck 22.1895 -4.12081 -0.00802289
head 9.82967 -1.99943 -0.367747
rclavicle -3.42904e-015 1.26228e-014
rhumerus -18.5132 -8.12192 -82.604
rradius 30.6674
rwrist -0.852709
rhand -19.2709 24.4553
rfingers 7.12502
rthumb 7.0437 -5.40752
lclavicle -3.42904e-015 1.26228e-014
lhumerus -37.5716 6.7539 82.3318
lradius 20.7081
lwrist 1.82506
lhand -27.2762 23.7
lfingers 7.12502
lthumb -0.686841 53.6787
rfemur 9.07033 6.29492 34.3377
rtibia 21.2917
rfoot -18.7798 -4.19706
rtoes 2.02163
lfemur -25.9576 -6.38516 -8.71776
ltibia 14.5849
lfoot -6.05117 6.91532
ltoes -8.43132
222
root 0.190647 17.8726 10.6804 -0.125601 -4.16751 -7.4751
lowerback 9.11091 2.30352 8.07043
upperback -0.36469 4.05088 2.14983
thorax -5.10403 1.80922 -2.79665
lowerneck -16.7767 -3.16051 -1.09347
upperneck 22.3462 -4.10604 -0.0613407
head 9.89125 -1.998 -0.386571
rclavicle 7.47927e-015 -2.18663e-015
rhumerus -18.2892 -8.26381 -82.5941
rradius 30.525
rwrist -0.646581
rhand -19.2188 24.2838
rfingers 7.12502
rthumb 7.09396 -5.57731
lclavicle 7.47927e-015 -2.18663e-015
lhumerus -37.6906 7.523 81.868
lradius 19.8034
lwrist 0.508961
lhand -27.9941 21.268
lfingers 7.12502
lthumb -1.38019 51.2433
rfemur 9.70365 6.47819 34.2847
rtibia 21.5884
rfoot -18.7604 -4.20417
rtoes 0.782874
lfemur -25.3032 -6.15611 -8.85221
ltibia 12.8585
lfoot -6.60777 6.72535
ltoes -8.61154
223
root 0.202092 17.8452 10.8647 -0.092541 -4.30339 -7.45744
lowerback 9.12142 2.32314 7.94849
upperback -0.388975 4.06792 2.17136
thorax -5.14347 1.81899 -2.7102
lowerneck -16.6755 -3.16511 -0.965818
upperneck 22.3565 -4.13062 -0.136665
head 9.87102 -2.00792 -0.435449
rclavicle -7.52276e-015 -2.57426e-014
rhumerus -18.2007 -8.16535 -82.6205
rradius 30.6167
rwrist -0.550027
rhand -19.2986 24.3421
rfingers 7.12502
rthumb 7.01688 -5.5216
lclavicle -7.52276e-015 -2.57426e-014
lhumerus -37.8617 8.00648 81.5604
lradius 19.202
lwrist -0.157974
lhand -27.7833 14.1581
lfingers 7.12502
lthumb -1.17665 44.1346
rfemur 10.065 6.6304 34.2478
rtibia 22.0892
rfoot -18.5103 -3.90728
rtoes 1.3542
lfemur -24.8827 -5.88078 -8.99568
ltibia 11.6826
lfoot -6.95996 6.70611
ltoes -9.90948
